<?xml version="1.0" encoding="UTF-8"?><svg id="Game_Insight" xmlns="http://www.w3.org/2000/svg" width="510" height="210" xmlns:xlink="http://www.w3.org/1999/xlink" viewBox="0 0 510 210"><defs><style>.cls-1{fill:url(#linear-gradient);fill-rule:evenodd;}</style><linearGradient id="linear-gradient" x1="152.8" y1="454.47" x2="43.64" y2="563.62" gradientTransform="translate(0 -406.32)" gradientUnits="userSpaceOnUse"><stop offset="0" stop-color="#d257fc"/><stop offset=".15" stop-color="#b62dcc"/><stop offset=".32" stop-color="#909"/><stop offset=".44" stop-color="#8312b6"/><stop offset=".76" stop-color="#503eff"/></linearGradient></defs><g><path d="m214.17,88.74c1.72-.7,3.31-1.53,4.75-2.5,2.06-1.38,3.8-3.01,5.2-4.85,1.4-1.84,2.49-3.91,3.24-6.16.74-2.25,1.12-4.65,1.12-7.17,0-3.16-.55-6.1-1.64-8.75-1.1-2.69-2.87-5.02-5.22-6.95-2.33-1.9-5.34-3.39-8.94-4.43-3.56-1.03-7.86-1.55-12.81-1.55h-22.9v73.57h15.65v-27.8h4.46c1.37,0,2.07.22,2.41.4.49.26.96.74,1.41,1.42l14.96,22.78c.66,1.01,1.49,1.81,2.45,2.36.98.56,2.17.85,3.52.85h14.18l-19.09-28.16c-.81-1.18-1.72-2.2-2.73-3.05h0Zm-21.56-29.7h7.26c4.58,0,7.99.89,10.14,2.63,2.1,1.71,3.12,4.12,3.12,7.38,0,1.65-.27,3.17-.8,4.53-.52,1.33-1.32,2.5-2.37,3.46-1.07.98-2.46,1.76-4.14,2.33-1.72.58-3.79.87-6.13.87h-7.06v-21.21h0Z"/><path d="m276.71,73.63c-2.27-2.34-5.06-4.17-8.27-5.45-3.2-1.26-6.8-1.9-10.7-1.9s-7.51.64-10.72,1.9c-3.23,1.27-6.03,3.1-8.32,5.45-2.29,2.34-4.09,5.23-5.34,8.59-1.24,3.33-1.87,7.1-1.87,11.2s.63,7.91,1.87,11.24c1.25,3.36,3.05,6.26,5.33,8.63,2.29,2.38,5.09,4.23,8.32,5.5,3.21,1.26,6.82,1.9,10.72,1.9s7.51-.64,10.7-1.9c3.22-1.27,6-3.12,8.27-5.5,2.27-2.37,4.05-5.28,5.28-8.64,1.23-3.33,1.84-7.11,1.84-11.24s-.62-7.86-1.84-11.19c-1.23-3.36-3.01-6.25-5.29-8.59h0Zm-10.63,31.59c-1.79,2.51-4.52,3.73-8.34,3.73s-6.66-1.23-8.47-3.75c-1.88-2.62-2.83-6.54-2.83-11.68s.95-9.08,2.83-11.73c1.81-2.55,4.58-3.8,8.46-3.8s6.55,1.23,8.34,3.77c1.86,2.63,2.8,6.59,2.8,11.75s-.94,9.1-2.8,11.7h0Z"/><path d="m325.68,104.46c-1.03,0-1.96.33-2.78.97-.6.47-1.3.98-2.09,1.54-.74.52-1.67,1-2.78,1.44-1.05.41-2.48.63-4.25.63s-3.33-.33-4.7-.99c-1.36-.65-2.53-1.62-3.5-2.89-.98-1.3-1.76-2.94-2.29-4.88-.54-1.99-.82-4.3-.82-6.86s.25-4.72.75-6.66c.49-1.89,1.22-3.51,2.19-4.83.94-1.28,2.14-2.27,3.56-2.95,1.44-.69,3.15-1.04,5.09-1.04,1.53,0,2.82.17,3.82.5,1.05.35,1.96.75,2.71,1.18.8.47,1.5.89,2.07,1.25.79.5,1.62.75,2.47.75.93,0,1.67-.22,2.23-.64.43-.33.85-.75,1.28-1.3l3.83-5.3-.73-.73c-2.36-2.36-5.06-4.2-8.03-5.47-2.97-1.27-6.47-1.92-10.39-1.92-4.11,0-7.82.7-11.01,2.07-3.2,1.37-5.92,3.31-8.1,5.74-2.16,2.43-3.83,5.33-4.94,8.64-1.1,3.27-1.66,6.87-1.66,10.69,0,4.26.63,8.11,1.87,11.47,1.24,3.36,2.97,6.26,5.11,8.59,2.16,2.35,4.72,4.16,7.63,5.39,2.89,1.22,6.01,1.84,9.28,1.84,1.82,0,3.68-.13,5.53-.41,1.88-.27,3.73-.75,5.49-1.42,1.77-.67,3.5-1.58,5.15-2.69,1.65-1.12,3.21-2.53,4.62-4.17l.64-.75-4.07-5.16c-.71-1.07-1.82-1.63-3.19-1.63h0Z"/><path d="m367.95,91.38c-.25-.31-.52-.61-.8-.89.27-.22.54-.47.8-.71.62-.6,1.23-1.27,1.81-1.99l17.35-20.72h-13.7c-1.23,0-2.27.25-3.08.74-.73.44-1.42,1.05-2.08,1.82l-12.53,15.48c-.52.62-.88.87-1.09.98-.16.08-.56.22-1.38.22h-1.06v-41.86h-14.56v75.53h14.56v-23.13h1.55c1.05,0,1.52.15,1.7.23.16.08.5.31.99,1.05l12.84,19.14c.64.96,1.39,1.66,2.23,2.08.82.41,1.81.62,2.95.62h13.26l-18.13-26.4c-.54-.77-1.08-1.5-1.62-2.18h0Z"/><path d="m429.46,95.93c.6-.24,1.08-.66,1.43-1.22.31-.49.5-1.12.61-1.9.09-.66.13-1.49.13-2.45,0-3.77-.57-7.19-1.7-10.14-1.14-2.98-2.75-5.54-4.79-7.6-2.05-2.07-4.52-3.66-7.34-4.73-2.8-1.07-5.9-1.6-9.21-1.6-3.92,0-7.5.7-10.64,2.07s-5.84,3.26-8.02,5.62c-2.18,2.36-3.88,5.15-5.04,8.32-1.16,3.15-1.75,6.56-1.75,10.13,0,4.56.67,8.63,2,12.12,1.33,3.5,3.19,6.49,5.53,8.88,2.34,2.39,5.13,4.23,8.3,5.45,3.14,1.21,6.58,1.83,10.23,1.83,1.82,0,3.72-.13,5.65-.4,1.96-.27,3.91-.75,5.79-1.41,1.9-.67,3.75-1.57,5.49-2.68,1.76-1.12,3.38-2.53,4.79-4.19l.64-.76-4.13-5.16c-.37-.5-.82-.9-1.33-1.18-.54-.29-1.16-.44-1.86-.44-.96,0-1.95.29-2.94.85-.79.45-1.71.95-2.76,1.5-1,.52-2.2,1.01-3.55,1.45-1.3.42-2.89.63-4.72.63-3.7,0-6.58-1.07-8.79-3.29-2-2-3.26-5.15-3.72-9.36h29.88c.72,0,1.32-.1,1.83-.31h0Zm-31.34-9.43c.6-2.74,1.69-4.9,3.24-6.45,1.78-1.78,4.23-2.65,7.46-2.65,1.62,0,3.05.27,4.23.8,1.17.53,2.16,1.26,2.92,2.16.77.92,1.36,2.01,1.74,3.24.28.91.46,1.88.54,2.9h-20.13Z"/><path d="m465.35,108.52l-.05-.08c-.33-.45-.64-.8-.97-1.05-.81-.63-2.06-.74-3.14-.08-.27.17-.59.34-.94.52-.33.17-.72.34-1.17.5-.38.13-.87.2-1.49.2-.98,0-1.69-.29-2.25-.93-.58-.66-.87-1.63-.87-2.89v-26.14h13.28v-11.07h-13.28v-15.9h-7.5c-.99,0-1.84.26-2.52.79-.71.54-1.17,1.3-1.37,2.27l-2.41,12.95-8.29,1.36v5.85c0,1.21.38,2.15,1.12,2.82.7.63,1.54.94,2.5.94h3.91v26.99c0,4.66,1.3,8.39,3.87,11.09,2.59,2.71,6.28,4.09,10.96,4.09,2.58,0,5.11-.4,7.51-1.19,2.43-.8,4.62-2,6.5-3.56l.8-.67-4.19-6.79h-.02Z"/></g><g><path d="m193.46,146.69c-.13.26-.33.38-.6.38-.2,0-.46-.11-.77-.34-.32-.22-.73-.48-1.25-.76-.52-.28-1.15-.54-1.9-.76s-1.67-.34-2.76-.34c-.98,0-1.87.14-2.67.42-.8.28-1.49.66-2.07,1.12-.57.47-1.02,1.02-1.33,1.64-.32.63-.48,1.28-.48,1.97,0,.85.22,1.55.65,2.11.43.56,1,1.04,1.71,1.44.71.4,1.51.74,2.41,1.03.89.29,1.82.58,2.76.87.94.29,1.86.61,2.76.96.89.35,1.7.79,2.41,1.32.71.52,1.28,1.17,1.71,1.93.43.76.65,1.69.65,2.77,0,1.18-.21,2.27-.64,3.29s-1.04,1.9-1.85,2.64c-.8.74-1.8,1.33-2.97,1.77-1.18.43-2.52.65-4.02.65-1.9,0-3.54-.31-4.92-.91s-2.61-1.4-3.7-2.38l.63-.93c.09-.15.19-.26.3-.33s.26-.11.46-.11c.24,0,.52.15.87.43s.79.6,1.35.94,1.24.65,2.07.94,1.84.43,3.06.43c1.14,0,2.14-.16,3.02-.48.87-.32,1.6-.75,2.18-1.29s1.02-1.18,1.32-1.92.45-1.51.45-2.32c0-.91-.22-1.66-.65-2.25-.43-.6-1.01-1.1-1.71-1.52-.71-.41-1.51-.77-2.41-1.06s-1.82-.58-2.77-.87-1.88-.61-2.77-.95c-.89-.34-1.7-.78-2.41-1.3-.71-.52-1.28-1.16-1.71-1.92s-.65-1.69-.65-2.82c0-.96.21-1.88.63-2.77s1.01-1.67,1.78-2.34c.77-.67,1.71-1.21,2.82-1.6,1.1-.4,2.35-.6,3.72-.6,1.65,0,3.12.24,4.39.71s2.45,1.21,3.52,2.19l-.57.9h0Z"/><path d="m225.55,142.88c1.94,0,3.68.33,5.2.99,1.53.66,2.82,1.6,3.87,2.82,1.05,1.21,1.85,2.67,2.41,4.39.56,1.71.83,3.63.83,5.75s-.27,4.03-.83,5.73c-.56,1.7-1.35,3.16-2.41,4.38-1.05,1.21-2.34,2.14-3.87,2.8-1.53.65-3.27.98-5.2.98s-3.68-.33-5.2-.98c-1.53-.65-2.83-1.58-3.89-2.8-1.06-1.21-1.86-2.67-2.42-4.38s-.83-3.61-.83-5.73.27-4.03.83-5.75c.56-1.71,1.36-3.17,2.42-4.39,1.06-1.21,2.36-2.15,3.89-2.82,1.53-.66,3.27-.99,5.2-.99Zm0,25.8c1.62,0,3.02-.27,4.23-.83,1.21-.56,2.21-1.35,3.02-2.38.8-1.03,1.41-2.28,1.81-3.73.4-1.46.6-3.1.6-4.91s-.2-3.43-.6-4.89c-.4-1.47-1-2.72-1.81-3.77-.8-1.04-1.81-1.84-3.02-2.41s-2.62-.84-4.23-.84-3.02.28-4.23.84c-1.21.56-2.21,1.37-3.02,2.41-.8,1.04-1.41,2.3-1.82,3.77-.41,1.47-.61,3.1-.61,4.89s.2,3.45.61,4.91c.41,1.46,1.02,2.71,1.82,3.73.8,1.03,1.81,1.83,3.02,2.38s2.61.83,4.23.83Z"/><path d="m259.32,170.36v-24.22l-3.8-.24c-.52-.04-.79-.26-.79-.68v-1.06h4.6v-3.42c0-1.54.2-2.9.6-4.07.4-1.17.96-2.14,1.69-2.92.72-.78,1.6-1.37,2.62-1.76,1.02-.39,2.15-.59,3.38-.59.56,0,1.13.05,1.7.15.57.1,1.07.24,1.51.42l-.08,1.25c-.02.26-.19.38-.52.38-.22,0-.51-.03-.88-.08s-.83-.08-1.37-.08c-.89,0-1.71.13-2.46.4-.75.26-1.4.68-1.94,1.26s-.96,1.33-1.26,2.27c-.3.93-.45,2.08-.45,3.44v3.35h8.78v1.93h-8.73v24.27h-2.59Z"/><path d="m298.13,170.8c-1.83,0-3.26-.5-4.26-1.52-1.02-1.02-1.52-2.58-1.52-4.7v-18.48h-3.89c-.2,0-.36-.06-.49-.17s-.19-.26-.19-.46v-1.01l4.62-.33.64-9.68c.02-.16.08-.31.2-.43.11-.13.27-.19.47-.19h1.21v10.33h8.51v1.93h-8.51v18.35c0,.74.1,1.39.29,1.92.19.54.45.98.79,1.32.33.34.73.6,1.18.76.45.17.94.24,1.47.24.65,0,1.21-.1,1.69-.29.47-.19.88-.4,1.23-.63.34-.22.63-.43.84-.63s.39-.29.52-.29c.15,0,.29.09.43.27l.71,1.14c-.69.76-1.56,1.37-2.62,1.83-1.06.46-2.16.7-3.3.7h0Z"/><path d="m319.5,143.31h1.99c.26,0,.46.07.63.2s.27.29.33.45l6.82,21.34c.13.41.22.82.3,1.19.07.38.15.76.22,1.14.09-.38.19-.76.3-1.14.11-.38.24-.78.38-1.19l7.26-21.53c.13-.4.38-.6.76-.6h1.06c.4,0,.66.2.79.6l7.15,21.53c.27.82.49,1.6.65,2.36.07-.38.15-.77.23-1.16.08-.39.2-.79.34-1.21l6.85-21.34c.15-.43.45-.65.93-.65h1.9l-9.05,27.05h-1.9c-.29,0-.5-.19-.63-.57l-7.42-21.96c-.09-.27-.17-.54-.24-.82-.07-.27-.13-.54-.19-.82-.06.27-.11.54-.18.82s-.14.54-.23.82l-7.5,21.96c-.11.38-.33.57-.65.57h-1.82l-9.05-27.05h0Z"/><path d="m393.08,170.36c-.54,0-.88-.26-1.01-.76l-.38-3.45c-.74.72-1.48,1.38-2.22,1.96-.73.58-1.5,1.07-2.3,1.47-.8.4-1.66.7-2.59.91-.93.21-1.94.31-3.05.31-.93,0-1.82-.13-2.69-.41-.87-.27-1.64-.69-2.31-1.25s-1.21-1.28-1.62-2.16-.61-1.93-.61-3.17c0-1.14.33-2.2.98-3.18s1.67-1.83,3.06-2.55c1.39-.73,3.17-1.3,5.36-1.74,2.18-.43,4.81-.69,7.87-.76v-2.83c0-2.5-.54-4.42-1.62-5.78-1.08-1.35-2.67-2.02-4.8-2.02-1.3,0-2.41.18-3.33.54-.91.36-1.69.76-2.32,1.19s-1.15.84-1.55,1.19c-.4.36-.73.54-1.01.54-.36,0-.63-.16-.82-.49l-.46-.79c1.41-1.41,2.9-2.48,4.46-3.2,1.56-.73,3.33-1.09,5.3-1.09,1.45,0,2.72.23,3.8.7s1.99,1.12,2.71,1.99c.71.86,1.26,1.9,1.62,3.13.36,1.23.54,2.59.54,4.09v17.61h-1.03.03Zm-10.87-1.45c1.05,0,2.02-.11,2.9-.34s1.69-.54,2.44-.95,1.46-.89,2.11-1.46c.65-.56,1.3-1.17,1.93-1.82v-7.04c-2.57.07-4.79.27-6.65.59s-3.39.75-4.6,1.29-2.09,1.19-2.66,1.94c-.57.75-.86,1.61-.86,2.57,0,.91.15,1.69.45,2.35.3.66.7,1.21,1.18,1.63.49.43,1.06.74,1.71.94s1.33.3,2.04.3h0Z"/><path d="m415.58,170.36v-27.05h1.36c.31,0,.53.06.66.19.13.13.21.34.23.65l.22,5.71c.87-2.19,2.03-3.91,3.48-5.15,1.45-1.24,3.24-1.86,5.36-1.86.82,0,1.56.08,2.25.26s1.34.42,1.96.75l-.35,1.79c-.06.29-.24.43-.54.43-.11,0-.26-.04-.46-.11s-.45-.15-.75-.24-.66-.17-1.1-.24-.93-.11-1.49-.11c-2.05,0-3.73.63-5.04,1.9-1.32,1.27-2.38,3.1-3.19,5.49v17.59h-2.59Z"/><path d="m456.77,142.88c1.52,0,2.93.26,4.23.79s2.42,1.29,3.37,2.3c.95,1,1.69,2.24,2.23,3.71.54,1.47.8,3.15.8,5.06,0,.4-.06.67-.18.82s-.3.22-.56.22h-19.51v.52c0,2.03.24,3.82.71,5.36s1.14,2.83,2.01,3.87c.87,1.04,1.92,1.83,3.15,2.35,1.23.52,2.61.79,4.13.79,1.36,0,2.53-.15,3.54-.45s1.83-.63,2.52-1c.68-.37,1.22-.71,1.62-1.01s.69-.45.87-.45c.24,0,.41.09.54.27l.71.87c-.43.54-1.01,1.05-1.72,1.52-.71.47-1.51.87-2.39,1.21s-1.82.6-2.83.8c-1.01.2-2.02.3-3.03.3-1.85,0-3.54-.32-5.06-.96s-2.83-1.58-3.92-2.82c-1.09-1.23-1.93-2.74-2.53-4.53s-.89-3.83-.89-6.13c0-1.94.27-3.73.83-5.37s1.35-3.05,2.39-4.24c1.04-1.19,2.32-2.11,3.83-2.78s3.23-1.01,5.15-1.01h0Zm.04,1.93c-1.39,0-2.64.22-3.75.65-1.1.43-2.06,1.06-2.87,1.88-.8.82-1.46,1.79-1.95,2.94-.5,1.14-.83,2.42-.99,3.83h17.8c0-1.45-.2-2.75-.59-3.9s-.96-2.13-1.69-2.92-1.59-1.41-2.6-1.83c-1.02-.43-2.13-.64-3.36-.64h0Z"/></g><path class="cls-1" d="m32.8,98.54c-.91-.25-1.69-.84-2.16-1.66s-.59-1.79-.35-2.7c.25-.91.84-1.69,1.66-2.16s1.79-.59,2.7-.35l32.28,8.65h0c2.02.56,4.16.58,6.2.05l.18-.04c1.95-.58,3.72-1.65,5.14-3.1h.01s51.89-51.87,51.89-51.87c.67-.67,1.57-1.04,2.52-1.04s1.85.38,2.52,1.04c.67.67,1.04,1.57,1.04,2.52s-.38,1.85-1.04,2.52l-51.87,51.88h0c-2.29,2.34-5.15,4.02-8.29,4.92-.08.03-.16.05-.24.08-3.24.86-6.64.84-9.87-.06h0l-32.31-8.67Zm12.01-11.98l16.52,4.42c3.23.9,6.64.91,9.88.05,3.24-.87,6.19-2.59,8.54-4.97l21.19-21.19c.67-.67,1.05-1.58,1.05-2.53s-.38-1.86-1.05-2.53-1.58-1.05-2.53-1.05-1.86.38-2.53,1.05l-21.19,21.19c-1.58,1.58-3.4,2.64-5.34,3.16-1.94.52-4.04.51-6.19-.06l-16.51-4.42c-.45-.13-.93-.17-1.4-.11s-.93.2-1.33.44c-.41.24-.77.55-1.06.93-.29.38-.5.8-.63,1.26-.12.46-.15.94-.09,1.4.06.47.22.92.47,1.33s.56.77.94,1.05c.38.28.81.49,1.27.6v-.02Zm64.49,79.75l-8.65-32.28c-.56-2.02-.59-4.16-.06-6.19l.04-.19c.57-1.95,1.64-3.72,3.09-5.15l51.88-51.89c.67-.67,1.04-1.57,1.04-2.52s-.38-1.85-1.04-2.52c-.67-.67-1.57-1.04-2.52-1.04s-1.85.38-2.52,1.04l-51.87,51.87c-2.33,2.29-4.02,5.15-4.92,8.28-.03.08-.05.16-.08.24-.86,3.24-.84,6.64.06,9.87h0l8.66,32.31c.25.91.84,1.69,1.66,2.16s1.79.59,2.7.35c.91-.25,1.69-.84,2.16-1.66s.59-1.79.35-2.7h0Zm11.99-11.99l-4.42-16.51c-.56-2.02-.59-4.16-.06-6.2l.04-.18c.58-1.95,1.65-3.72,3.1-5.14l21.19-21.19c.67-.67,1.05-1.58,1.05-2.53s-.38-1.86-1.05-2.53c-.67-.67-1.58-1.05-2.53-1.05s-1.86.38-2.53,1.05l-21.18,21.19c-2.32,2.3-4.02,5.15-4.91,8.29-.03.08-.05.16-.08.24-.86,3.24-.84,6.64.06,9.87h0l4.43,16.53c.12.45.33.87.62,1.24s.64.68,1.05.91c.4.24.86.38,1.32.45.47.06.93.03,1.39-.1.45-.12.87-.33,1.24-.62s.68-.64.91-1.05c.23-.4.38-.86.44-1.32.06-.47.03-.93-.1-1.39h0Zm27.51-107.21l-107.95,107.94c-.67.67-1.05,1.58-1.05,2.53s.38,1.86,1.05,2.53c.67.67,1.58,1.05,2.53,1.05s1.86-.38,2.53-1.05l107.94-107.94c.66-.67,1.02-1.58,1.02-2.52,0-.94-.38-1.84-1.05-2.5s-1.56-1.04-2.5-1.05-1.84.36-2.52,1.02ZM62.85,112.85l-22.59,22.59c-.67.67-1.05,1.58-1.05,2.53s.38,1.86,1.05,2.53,1.58,1.05,2.53,1.05,1.86-.38,2.53-1.05l22.58-22.59c.33-.33.59-.73.78-1.16.18-.43.27-.9.27-1.37s-.09-.94-.27-1.37c-.18-.43-.44-.83-.78-1.16-.33-.33-.73-.59-1.16-.78-.43-.18-.9-.27-1.37-.27s-.94.1-1.37.27-.83.45-1.16.78h0s.02,0,.02,0Zm20.24,20.22l-22.59,22.59c-.67.67-1.05,1.58-1.05,2.53s.38,1.86,1.05,2.53,1.58,1.05,2.53,1.05,1.86-.38,2.53-1.05l22.58-22.59c.66-.68,1.02-1.58,1.02-2.52s-.38-1.84-1.05-2.5-1.56-1.04-2.5-1.05c-.94,0-1.84.36-2.52,1.02h0Z"/><path d="m464.22,48.15c0-.82.11-1.62.32-2.38.21-.76.51-1.47.9-2.14s.86-1.26,1.4-1.81,1.15-1.01,1.81-1.4c.66-.39,1.37-.69,2.13-.91.76-.21,1.55-.32,2.37-.32s1.62.11,2.38.32c.76.21,1.47.51,2.13.91.66.39,1.26.86,1.81,1.4s1.02,1.14,1.4,1.81c.39.66.69,1.38.9,2.14.21.76.32,1.56.32,2.38s-.11,1.6-.32,2.37c-.21.76-.51,1.47-.9,2.13s-.86,1.26-1.4,1.81c-.55.54-1.15,1.01-1.81,1.4-.66.39-1.37.7-2.13.91-.77.21-1.56.32-2.38.32s-1.62-.11-2.37-.32c-.76-.21-1.47-.51-2.13-.91-.66-.39-1.26-.86-1.81-1.4-.55-.54-1.02-1.14-1.4-1.81-.39-.66-.69-1.37-.9-2.13-.21-.76-.32-1.55-.32-2.37Zm1.23,0c0,.73.09,1.42.27,2.09.18.67.43,1.3.77,1.88.33.58.73,1.11,1.2,1.58s.98.88,1.55,1.22,1.19.6,1.84.79c.66.19,1.35.27,2.07.27,1.08,0,2.09-.2,3.03-.61s1.76-.96,2.46-1.67c.7-.7,1.25-1.53,1.65-2.48s.61-1.97.61-3.06c0-.73-.09-1.42-.27-2.1s-.44-1.31-.78-1.89-.73-1.12-1.21-1.6c-.47-.48-.99-.89-1.56-1.23-.57-.34-1.19-.6-1.85-.79-.66-.19-1.35-.28-2.07-.28-1.08,0-2.08.2-3.02.62s-1.76.98-2.44,1.69c-.7.71-1.24,1.55-1.64,2.51s-.6,1.99-.6,3.08h0Zm5.94,1.09v4.33h-1.91v-10.9h3.52c1.4,0,2.44.26,3.12.77s1.02,1.26,1.02,2.25c0,.77-.22,1.42-.66,1.95s-1.09.91-1.95,1.11c.14.08.26.19.36.31s.2.27.29.43l2.79,4.09h-1.81c-.27,0-.47-.1-.6-.31l-2.46-3.69c-.07-.11-.16-.19-.26-.24s-.26-.08-.47-.08h-.98Zm0-1.4h1.42c.45,0,.83-.04,1.14-.13s.57-.21.76-.37c.19-.17.33-.36.41-.6s.13-.51.13-.82-.04-.57-.11-.8-.2-.41-.38-.56-.41-.26-.69-.33c-.29-.07-.64-.11-1.07-.11h-1.62v3.72h0Z"/></svg>